<?xml version="1.0" encoding="UTF-8"?>
<svg id="Layer_1" xmlns="http://www.w3.org/2000/svg" version="1.1" viewBox="0 0 177.3 194.1">
  <!-- Generator: Adobe Illustrator 30.0.0, SVG Export Plug-In . SVG Version: 2.1.1 Build 123)  -->
  <defs>
    <style>
      .st0, .st1 {
        isolation: isolate;
      }

      .st1 {
        font-family: Arial-BoldMT, Arial;
        font-size: 72px;
        font-weight: 700;
      }

      .st1, .st2 {
        fill: #2e3192;
      }
    </style>
  </defs>
  <path class="st2" d="M91.7,178.9c-12.5-8.5-25.4-16.3-38.6-23.5-11.7-6.3-23.3-13.3-35.6-18.4-2.1-26.5-2.1-53.2,0-79.8,12.3-5.1,24-12.1,35.7-18.5,13.3-7.2,26.2-15,38.6-23.5,5.3-3.6.3-12.3-5-8.6-12,8.2-24.3,15.7-37,22.7-12.5,6.9-25.1,14.7-38.5,19.8-2.3.9-3.3,2.9-3.4,4.8,0,.2-.1.5-.1.8-2.3,28.4-2.3,57,.1,85.4,0,2.1.9,4.2,3.4,5.1,13.4,5,26,12.9,38.5,19.8,12.7,7,25.1,14.5,37,22.7,5.3,3.7,10.3-5,5-8.6h0Z"/>
  <path class="st2" d="M87.5,178.9c12.5-8.5,25.4-16.3,38.6-23.5,11.7-6.3,23.3-13.3,35.6-18.4,2.1-26.5,2.1-53.2,0-79.8-12.3-5.1-24-12.1-35.7-18.5-13.3-7.2-26.2-15-38.6-23.5-5.3-3.6-.3-12.3,5-8.6,12,8.2,24.3,15.7,37,22.7,12.5,6.9,25.1,14.7,38.5,19.8,2.3.9,3.3,2.9,3.4,4.8,0,.2.1.5.1.8,2.3,28.4,2.3,57-.1,85.4,0,2.1-1,4.2-3.4,5.1-13.4,5-26,12.9-38.5,19.8-12.7,7-25.1,14.5-37,22.7-5.3,3.7-10.3-5-5-8.6h0Z"/>
  <g class="st0">
    <text class="st1" transform="translate(29.3 116.5)"><tspan x="0" y="0">KIF</tspan></text>
  </g>
</svg>